<?xml version="1.0" encoding="UTF-8" standalone="no"?>
<svg
   xmlns:dc="http://purl.org/dc/elements/1.1/"
   xmlns:cc="http://creativecommons.org/ns#"
   xmlns:rdf="http://www.w3.org/1999/02/22-rdf-syntax-ns#"
   xmlns:svg="http://www.w3.org/2000/svg"
   xmlns="http://www.w3.org/2000/svg"
   id="svg1920"
   height="488.62204"
   width="602.36218"
   version="1.0">
  <metadata
     id="metadata52">
    <rdf:RDF>
      <cc:Work
         rdf:about="">
        <dc:format>image/svg+xml</dc:format>
        <dc:type
           rdf:resource="http://purl.org/dc/dcmitype/StillImage" />
        <dc:title></dc:title>
      </cc:Work>
    </rdf:RDF>
  </metadata>
  <defs
     id="defs1922" />
  <g
     id="layer1">
    <g
       id="g4407">
      <path
         d="m 108.9861,215.24368 c 0,-105.8648 86.14523,-192.007556 192.03554,-192.007556 105.86445,0 192.00047,86.142756 192.00047,192.007556 0,105.89031 -86.13602,192.00968 -192.00047,192.00968 -105.89031,0 -192.03554,-86.11937 -192.03554,-192.00968 z m -5.51056,0 c 0,108.92409 88.62201,197.52023 197.5461,197.52023 108.92161,0 197.54362,-88.59614 197.54362,-197.52023 0,-108.92161 -88.62201,-197.520588 -197.54362,-197.520588 -108.92409,0 -197.5461,88.598978 -197.5461,197.520588 z"
         style="fill:#007d7a;fill-rule:evenodd"
         id="_49116176" />
      <path
         d="m 430.79845,247.37049 c -5.39433,5.00527 -13.0089,5.07968 -19.17425,9.14811 -2.81693,2.81693 -2.11358,6.04878 -0.95988,9.61157 2.28578,4.49929 1.41661,4.04504 -1.75713,5.1052 -7.44201,2.47677 -7.3676,10.62283 -16.33146,9.27142 -0.50563,0.14208 -2.59547,-0.91347 -1.34433,0.60342 0.96237,1.12996 1.34433,0.45673 3.24815,0.67323 3.18296,0.16547 4.3852,-1.16043 6.62209,-2.67732 3.18047,-2.69327 2.79354,-3.70453 6.74539,-5.58496 0.93685,-0.24024 3.24815,-0.91099 4.54855,-0.45425 0.86882,0.7944 0.89468,0.81779 1.03677,1.53992 -0.50563,2.18799 -3.6815,3.99614 -4.91421,4.74165 1.68944,1.23272 4.82102,3.30413 4.28952,5.03539 -0.72673,1.15335 -0.67783,1.35142 -1.92897,1.94811 -1.78016,0.86882 -5.31957,0.72213 -8.66799,-1.75712 -0.50563,0.16795 -1.06016,-0.95988 -2.47678,0.38941 3.24815,3.34807 7.79847,2.59547 8.47666,3.27366 0.69661,0.6711 -2.43496,4.71614 -2.55366,5.58496 -2.19508,5.80677 0.48224,11.15185 -0.67819,17.1939 -0.72,4.69736 -2.14583,6.93637 -6.25607,9.92586 -7.58905,5.24729 -12.9111,6.76417 -21.38775,8.13898 -22.2991,1.51476 -36.36567,-6.14197 -52.40126,-18.13713 -16.06571,-11.99303 -22.20768,-18.34724 -27.21295,-25.09263 -0.0744,-2.76804 1.94811,-4.86532 0.21685,-7.84772 -1.44921,0.50563 -1.30252,2.40449 -2.17169,3.48803 -1.25115,1.75713 -4.21052,3.03378 -6.33083,2.81941 -6.59658,-2.23902 -6.95977,-9.99354 -11.1026,-14.42764 -8.83594,-8.71689 -11.3198,-21.28783 -6.59657,-31.81039 1.65897,-3.25028 4.64846,-6.38185 7.99441,-7.54016 4.11944,-0.64771 8.98263,-0.64771 11.67838,3.34843 3.18047,3.03838 5.15409,7.97138 5.9485,12.32858 1.3004,2.09693 -0.28878,4.50638 1.88044,6.23976 3.77964,0.36355 7.02744,1.3004 10.665,-1.01126 2.70035,0.36355 3.05929,3.34843 5.10519,4.64847 l 3.61134,2.16956 c 3.85406,1.58422 8.81717,1.58422 12.06532,-1.23271 6.09767,-6.23303 4.77177,-12.66165 6.86905,-19.5541 5.8252,-5.14948 9.6789,-12.52169 9.60449,-19.72417 -0.35646,-4.42453 -1.94776,-9.00567 -4.57406,-13.41425 0.43123,-2.61886 1.90382,-4.5737 2.74252,-6.91087 0.74587,-0.43122 1.68945,-0.43122 2.48386,-0.5733 6.4754,-1.37481 12.35658,-7.2489 14.88225,-13.43977 l 0.58039,-0.58004 c 7.4165,-0.5035 16.63902,-3.13193 20.90055,-10.87937 0.89256,-3.34807 4.64847,-0.86917 6.98315,-1.66606 3.92882,-0.21437 7.84772,-2.40909 10.81417,-4.93724 0.86209,-0.28878 1.51689,0.65232 2.04555,1.08567 1.73374,5.79968 4.91422,11.39173 6.74575,17.29169 2.23689,4.40858 3.05681,8.61874 2.23689,13.12512 0.93898,6.88783 4.89083,13.36535 7.63335,20.32547 2.74925,7.34421 7.03453,14.7352 10.1661,22.29874 0.57295,3.03378 1.87335,5.44535 0,7.89874 z m 1.51689,-12.66839 c -5.22886,-12.06531 -11.10295,-22.41779 -15.38787,-34.55504 -3.05717,-4.35968 -1.3004,-8.98263 -1.68945,-13.65661 -1.94776,-7.2489 -5.0074,-12.83634 -7.89662,-19.89425 -0.82027,-2.02252 1.44248,-2.59547 2.23689,-4.04504 1.3004,-3.56244 0.38906,-7.55646 -1.22563,-10.97929 -0.64771,-1.95484 1.68237,-3.32256 1.22563,-5.34508 -0.0677,-3.13157 -2.81693,-5.25189 -5.00492,-6.91087 -3.28075,-4.72322 -4.79764,-7.2 -8.86606,-11.46649 l 0,-0.82028 c 2.0459,-1.80567 3.71197,-4.93263 3.66307,-7.60748 -0.82028,-3.03378 -1.46799,-5.87409 -4.3852,-7.99689 -4.64846,-2.60043 -9.3646,1.468 -13.0507,3.56492 -1.03465,0.72 -1.54028,1.44922 -2.98949,1.32591 -0.93685,-0.34016 -1.89922,-0.69661 -2.91048,-1.06016 -0.94358,1.08355 -2.12031,2.24398 -3.5394,3.37146 l 4.50177,1.83153 c 0.14669,0.12367 0.21437,0.21437 0.21437,0.38693 0,0.0673 -0.0489,0.2165 -0.0489,0.33307 -0.30756,0.26575 -10.44815,9.15485 -10.44815,9.15485 -0.0255,0.0188 -18.25618,18.00921 -18.25618,18.00921 0,0.0234 -5.20299,5.32665 -5.20299,5.32665 -0.0418,0.023 -16.22658,18.68492 -16.22658,18.68492 -8.47665,9.82807 -21.0033,25.93595 -28.51299,37.73551 -3.92634,5.39398 -7.82929,11.39386 -11.46649,17.07697 -0.38197,0.62433 -1.12748,0.57331 -2.3113,0.43335 -0.79441,-0.10028 -1.63347,-0.1676 -2.36055,0.0723 0,0 0.0234,0 0.0234,0 l -0.16547,0.0443 c 0.0489,-0.0188 0.0978,-0.0188 0.14209,-0.0443 -4.11945,0.45673 -7.12772,1.83154 -10.32662,4.71614 -4.14283,4.91422 -6.24012,10.83933 -6.24012,17.24492 0,4.40859 0.98788,9.05457 3.00827,13.70304 -0.84366,2.50476 -2.79142,4.69984 -4.54854,6.64759 l -0.98788,1.08355 -1.25114,1.25149 c -0.79441,0.748 -1.73834,1.63559 -2.38606,2.4789 l -0.0723,0.0748 -0.051,0.11658 c -0.0677,0.26539 -0.11657,0.77102 0.7037,1.15795 l 0.19099,0.1187 0.21649,-0.0443 c 3.82855,-0.91807 6.23764,-3.80941 8.57481,-6.60083 0,0 1.46799,-1.68484 1.68236,-1.95023 0.36354,-0.0493 0.6548,0.14209 1.13457,0.58004 0.26574,0.21649 0.5733,0.40783 0.91346,0.5733 0,0.0999 0,0.19808 0,0.19808 0,0 -0.0489,1.25114 -0.0489,1.53992 -9.07547,8.95925 -16.47354,14.01307 -26.15279,19.69866 l -1.61469,0.93649 1.88044,0.19807 c 3.76051,0.38233 7.34881,-1.74047 10.81381,-3.78637 l 4.16622,-2.28792 c 3.82819,-1.97149 7.39099,-4.97941 10.86272,-7.8711 0,0 3.10146,-2.60256 3.43913,-2.89169 0.34016,0.0748 0.69662,0.48012 0.96237,0.82027 0,0 0.22145,0.21437 0.36354,0.36355 0.0489,0.0932 2.89169,5.7274 3.05929,6.06508 -0.64772,2.65181 -0.91346,5.32204 -0.91346,7.99689 0,5.80181 1.25149,11.60822 2.47925,17.26795 1.22563,5.58531 2.47712,11.33823 2.47712,16.99795 0,0.38693 0,0.74587 -0.0234,1.10941 0,1.75677 -1.89921,4.06807 -3.5139,4.81394 -3.61382,0.60342 -8.0224,0.65445 -12.64535,0.70334 -5.70154,0.0422 -11.60114,0.0911 -16.13339,1.31882 -1.44212,0.17256 -3.13157,0.65268 -4.76504,1.10941 -1.5913,0.43087 -3.25488,0.91807 -4.79764,1.11118 l -0.14208,0.0234 -0.19099,0.14208 -0.55452,0.38906 c -0.50563,0.30756 -1.15796,0.72 -1.30004,1.46587 0,0.0744 -0.0259,0.14208 -0.0259,0.21649 0,0.40784 0.19099,0.91807 0.53114,1.22563 0.31465,0.34016 0.69697,0.4826 1.10941,0.46382 1.36772,0 2.91012,-0.58039 4.4015,-1.10905 1.03677,-0.38906 2.12031,-0.77138 3.10819,-0.94394 9.46949,-1.61008 19.81948,-1.29543 26.85401,-0.72213 3.465,-0.0489 9.14811,-0.16547 11.19614,-5.10271 0.74552,-1.99949 1.01126,-3.85406 1.01126,-5.6367 0,-1.97114 -0.31004,-3.85157 -0.6222,-5.79933 l -0.62894,-4.79763 c -0.40783,-2.91048 -1.03712,-5.8252 -1.63594,-8.668 -1.06016,-4.98189 -2.1437,-10.13598 -2.1437,-15.36236 0,-1.06016 0.0489,-2.12244 0.14244,-3.1826 0.0978,-0.14244 0.21401,-0.28913 0.36319,-0.30756 0.28913,-0.0493 0.82027,0.38197 1.25149,0.72213 0.47977,0.35646 0.9854,0.74551 1.53992,0.88795 0.62929,0.45425 1.32591,0.60343 1.97363,0.67784 0.91807,0.11657 1.40031,0.24023 1.68944,0.93685 0.38197,4.5737 1.97363,9.32031 3.51355,13.91988 1.06051,3.15 2.14618,6.40524 2.84279,9.60449 1.25114,5.56901 2.50264,11.22626 2.50264,16.8137 0,3.32291 -0.43122,6.61996 -1.61008,9.85181 -2.40945,4.42453 -7.72901,4.42453 -12.83421,4.45039 l -1.5424,0 -12.57555,-0.77138 c -10.76492,-0.77137 -21.90969,-1.56578 -33.32941,0.26575 0.0748,0 -2.55118,0.28878 -2.55118,0.28878 -1.41697,0.21685 -2.74252,0.38906 -4.1687,0.0489 -0.52902,-0.43087 -0.95989,-1.15795 -0.95989,-1.95236 0,-0.24236 0.0489,-0.4826 0.1467,-0.72248 2.04838,-4.49929 3.05929,-8.5702 3.05929,-12.18154 0,-2.9172 -0.67784,-5.51764 -2.00374,-7.82929 -2.95902,-5.65972 -6.20965,-9.5811 -10.21039,-12.33071 -4.91422,-4.88834 -9.09886,-9.24803 -12.83386,-13.48157 -2.16461,-0.26575 -3.49051,-0.7037 -3.66307,-0.74799 l -0.47977,-0.17256 -2.16496,2.70071 c 2.81729,2.67023 5.44323,5.37059 8.6191,8.26228 4.86283,2.61921 8.7913,7.34209 12.27933,10.54842 4.2176,4.90713 5.22885,10.13351 4.33417,15.96083 -0.5478,6.89244 -6.86197,9.87484 -11.14476,14.42551 -1.75678,3.27366 -2.8428,7.2 -0.45674,10.23378 1.54028,4.07516 8.06422,3.34843 8.85898,6.69437 1.80567,7.37469 14.59311,11.63409 17.10035,11.80169 2.47926,0.17256 5.0563,2.94059 5.0563,2.94059 5.07969,3.70949 11.75067,2.79142 15.26422,2.26241 3.49511,-0.53115 9.75826,2.31165 13.70551,1.73126 5.85071,-2.33717 10.67173,-1.25115 16.76267,-1.75678 19.16717,0.28878 40.9415,-0.14208 60.53988,2.33717 3.63721,-0.43122 7.97138,2.38571 11.39174,0.65232 0.88795,-1.4726 0.21685,-2.70071 0,-3.92634 -9.36922,-14.7398 -10.76244,-31.28102 -5.44288,-47.32122 l 3.51355,0.19099 c 12.74314,1.39783 24.30283,-0.26575 37.21145,-7.73114 6.44953,-3.56528 9.84685,-11.86937 9.55559,-17.91603 -0.21437,-3.90295 -1.56579,-8.5259 -0.91098,-12.66413 0.23988,-1.85457 1.44212,-4.6715 3.05681,-5.54067 0.64771,-0.38232 3.03378,-1.99949 3.77964,-4.0709 1.22776,-3.34595 -1.39358,-4.93725 -2.16496,-5.39398 2.07177,-0.84366 4.04504,-5.03079 2.16496,-8.30906 -1.20259,-1.277 -2.6263,-6.3822 -2.76838,-8.0387 -0.45673,-2.41157 -0.52866,-4.86531 1.73374,-6.40559 5.07933,-2.67697 9.87484,-3.32964 15.17102,-5.65972 3.63721,-1.52362 5.51764,-5.30327 5.37095,-8.70024 l -2.16461,-7.41437 z M 224.77783,354.38864 c -0.65481,1.18381 -0.58004,1.95271 -0.8713,3.34594 -0.36355,0.6548 -2.16957,-0.21437 -2.74252,-0.57295 -2.24398,-1.20721 -2.09729,-0.57792 -2.74961,-2.6752 -0.35646,-1.40031 -0.33307,-3.03378 2.00374,-4.25941 1.44248,-0.81992 4.35969,-1.80567 5.29654,0 0.28878,1.22563 -1.1537,2.79142 -0.93685,4.16162 z m 12.37287,15.70251 c -2.98488,0.0723 -5.0563,-1.56578 -6.42402,-5.05629 -1.40067,-4.48087 -1.88043,-8.40225 -0.91807,-13.02768 0.31217,-0.55453 0.95988,-0.9411 1.39784,-0.74551 l 4.14283,-1.4237 c 1.39358,-0.55453 2.55402,-0.74552 3.87284,-0.43087 l 0.81992,0.8387 c -0.051,2.40945 -0.64772,4.19173 -0.69662,6.42862 -0.24236,5.61792 -0.72212,7.30028 0.88796,12.64536 -0.59882,1.4237 -1.80142,0.74551 -3.08268,0.77137 z M 407.74676,161.27663 c -0.40536,0.43122 -0.91099,0.93685 -1.58421,0.7689 -1.54028,-1.08354 -0.96697,-2.45339 -0.86918,-3.75378 0.31465,-0.31429 0.36355,-0.47976 0.86918,-0.47976 0.72212,-0.14918 1.12783,0.40535 1.39322,0.79441 0.45674,0.83905 0.5315,1.80106 0.19099,2.67023 z m -117.78059,67.98012 c 10.15937,-18.22819 22.49008,-34.04941 35.71335,-50.30646 l 18.51944,-21.04759 c 13.1928,-14.08536 27.79052,-28.53638 43.97528,-39.70666 2.0459,-1.16043 2.9335,-3.56492 5.03079,-1.88043 l 1.90346,1.75677 c 1.27701,1.44709 0.16795,5.56654 -1.13457,6.71988 -1.06015,0.86918 -2.07141,1.68945 -3.08055,2.52603 3.15496,3.13157 7.72902,9.08256 11.45941,12.93413 1.64055,1.68484 1.13492,3.44622 4.07516,4.79055 1.46799,0.7037 1.89921,2.31165 1.01126,3.68646 -2.60256,3.34807 -6.93638,2.84244 -10.35709,3.71161 -12.71763,2.81693 -22.97693,6.44953 -37.03889,13.26756 -11.24469,5.97437 -20.22733,12.57059 -28.38969,22.80437 -3.10819,3.85406 -6.60331,6.76878 -9.20586,11.39173 -7.41437,9.51378 -13.29095,18.44717 -19.19056,28.24973 -2.09728,3.08267 -2.76803,4.62295 -5.73448,7.39098 -1.41662,1.3748 -2.69327,-1.46799 -3.58831,-2.45339 -0.0907,-0.0978 -0.16547,-0.24696 -0.23988,-0.34015 -0.28878,0.051 -0.59634,-0.0234 -0.91099,-0.21437 -0.79689,-1.03713 -3.27366,-1.47508 -2.81728,-3.28075 z m 111.95539,-70.39169 c -0.19098,3.52063 -4.88835,6.4311 -8.81681,7.51464 -1.65685,0.2654 -3.19925,0.17221 -4.69063,0.17221 -0.38905,-0.26327 -0.81992,-0.60343 -0.77102,-0.99 0.26539,-1.65933 0.53114,-2.64721 0.64771,-4.13823 l 0.96237,-0.72709 c 3.46925,-0.69661 7.70563,-1.44248 11.20074,-2.35559 0.50563,0.0932 1.15335,0.0439 1.46764,0.52406 z m -36.48401,9.18071 0.62893,-0.82028 c 2.8591,-1.35142 5.48752,-2.41157 8.64248,-3.29953 l 3.77929,-0.98539 c 1.01126,-0.91807 2.76804,-1.66394 3.80481,-0.36354 0.0489,4.88834 -3.60673,10.78795 -9.02658,13.02732 -1.71248,0.74551 -3.97523,0.98575 -5.99775,1.49811 -0.50563,-0.43795 -2.14583,0.48012 -2.65146,-0.7526 0.31465,-2.45339 1.25114,-6.11646 0.82028,-8.30409 z m -38.74677,86.86488 c -1.01126,0.5733 -9.80292,-2.77512 -8.76827,-1.85705 -2.0948,-2.23689 1.3259,-2.98949 -6.42862,-5.89961 l -1.88044,0.19099 c -0.23988,0.21685 -0.91346,0.58039 -1.61008,-0.38197 -0.0723,-1.18382 1.468,-1.01587 1.94811,-2.46083 2.76804,-6.23728 1.22776,-11.07709 0.96237,-17.53122 l 2.04803,-5.29653 c 3.90047,-4.67398 3.87708,-5.34508 6.52642,-7.89662 2.62842,-3.71161 3.18295,-4.00287 6.71988,-7.03417 0.58039,-0.50563 1.63594,-0.88795 2.33716,-0.31465 1.65898,1.30004 1.75677,2.16922 2.23937,3.82819 0.81992,6.16536 -2.91756,10.40599 -7.41685,13.75441 -3.18295,2.74252 -6.23976,7.03453 -5.54315,11.24504 l 0.26575,0.26327 c 1.4726,-1.20225 3.30378,-1.92225 3.92599,-3.44622 2.43496,-5.43614 8.98263,-7.92 12.64535,-12.63827 1.61468,-2.84031 0.6222,-7.72902 0,-11.00268 0,0.0911 4.81394,-2.295 3.5139,-1.44921 2.28791,0.96236 1.99665,2.60043 3.10571,4.69736 2.17169,5.44323 1.97362,10.37587 -1.34894,15.09874 l -9.14776,11.4176 c -0.14244,5.79933 1.44213,13.29059 -4.09393,16.71343 z m 12.06496,-55.24583 c -2.19508,1.01126 -4.45748,1.22776 -6.88784,0.0932 -0.62894,-0.82028 -2.62594,-1.51689 -1.83118,-2.74252 1.75925,-2.86831 4.74165,-5.22886 6.57319,-8.04579 l 0.86882,-0.45673 c 3.70488,-4.47591 9.58606,-8.26016 15.14799,-11.63409 l 3.34843,-1.46552 c 0.74551,-0.72248 2.45338,-2.23937 3.1057,-0.67358 0.14244,5.85106 -2.33681,12.11421 -7.92212,16.25244 -3.37146,2.50725 -4.83945,2.02713 -7.85481,2.21811 l -1.56578,2.7939 c -0.35646,1.39323 -1.58421,2.81693 -2.9824,3.66059 z m -30.80126,33.40134 -0.1467,4.14319 c -0.38232,3.77929 -2.1157,8.13897 -5.6785,10.23342 -2.12031,-0.50315 -1.35142,-3.05681 -1.88043,-4.79516 1.3748,-3.75378 3.99401,-6.88535 6.18874,-10.23377 0.31464,-0.2165 0.59882,-0.35859 0.91346,-0.2165 l 0.60343,0.86882 z m -50.54634,143.93586 c -1.4726,1.51689 -2.3113,0.82028 -3.80976,0.96697 -4.28493,-1.18347 -6.78721,-3.015 -7.98981,-7.8548 -1.5913,-6.74292 -1.52362,-14.15977 0,-21.07063 l 0.67111,-0.5315 c 3.00826,-0.33307 7.54015,-0.9365 8.79129,-0.26539 1.22811,0.68031 -1.32555,12.81295 -1.32555,12.81295 -0.0978,2.40945 1.08567,8.5748 2.19012,11.75527 0.22146,0.48225 2.69823,2.93599 1.4726,4.18713 z m 31.01563,-7.49126 c -0.45673,4.34091 -5.89961,8.14358 -8.5748,8.91496 -2.67024,0.77138 -10.61575,0.38197 -12.90367,-0.41244 -2.31165,-0.79689 -7.9037,-11.70177 -7.24889,-17.3615 0,-4.69736 1.27452,-12.11385 3.15035,-12.71728 1.88008,-0.57579 6.84106,-0.28453 6.84106,-0.28453 2.07142,-0.14917 3.66272,0.35646 5.48717,0.57331 1.27701,0.50563 0.38905,2.12032 0.82028,3.05717 0.60342,2.41157 0.74551,5.03752 2.24362,7.442 2.09019,4.05 5.91838,6.45449 9.72815,7.87819 0.83905,0.79441 0.35893,1.85705 0.45673,2.91012 z m -6.11646,-18.32138 c 0,-0.8713 0.0514,-1.22775 0.69662,-1.51689 l 3.5883,0 c 3.20634,0.11658 7.30028,1.15122 10.28516,-1.92933 1.70539,0.0723 1.85457,2.09481 2.3113,3.68646 0.40535,2.18764 0.31465,3.58831 0.31465,5.55945 -0.72248,1.56579 -1.51689,3.95185 -3.13158,4.96311 -2.57705,1.20224 -5.17996,0.96236 -7.65886,0 -3.73535,-2.21351 -6.45449,-5.75752 -6.40559,-10.7628 z m 73.49988,-17.14677 c -4.79516,16.64114 -7.08342,25.20886 0.40784,42.33508 0.0723,0.64772 0.79441,2.79354 0,3.05929 -8.28567,-1.66606 -10.47614,-2.38606 -18.25618,-2.94059 -7.17414,-1.25114 -19.12288,0.74551 -27.08717,0.67819 -6.23976,0.21437 -12.57768,0.43087 -19.09949,1.22563 -1.95484,-1.01126 -0.43122,-3.20634 -0.29126,-4.64846 0.72213,-2.23689 0.79689,-3.39733 1.01126,-6.02327 1.01126,-1.07894 2.26241,-0.50563 3.49052,-1.01126 4.19173,-0.64559 7.75452,-4.35721 8.76543,-8.27894 1.3259,-4.11732 -0.11622,-8.69811 -2.02217,-12.61949 -0.35681,-1.1583 -1.94811,-2.0459 -1.30039,-3.20634 5.15409,-9.65338 1.51689,-19.45594 -0.21437,-28.86944 -1.80815,-6.69685 -4.57618,-14.09492 -5.68524,-21.14575 0.23989,-0.72213 -0.69661,-2.41158 0.89469,-2.52815 l 0.57791,0.11657 c 5.51303,6.69437 21.31299,20.83111 27.23138,25.43067 5.90669,4.59957 21.19464,13.51418 31.13929,15.89315 0.94358,0.79477 0.79689,1.44957 0.43795,2.53311 z"
         style="fill:#007d7a;fill-rule:evenodd"
         id="_48873840" />
      <path
         d="m 397.75357,189.49872 c 1.01126,1.32555 1.68945,2.48598 0.86917,3.71161 -1.88043,0.14209 -2.16921,-2.23689 -3.75378,-3.03378 -2.62594,-1.30004 -4.96311,0.0677 -7.56354,0.72248 -6.59622,2.8428 -12.11386,8.50004 -18.51945,11.45941 -0.79689,0 -1.51689,-0.0723 -2.02252,-0.64559 1.08355,-1.08567 2.84067,-1.30252 4.21512,-2.19508 6.59905,-4.33382 13.00429,-11.14689 21.26445,-12.39803 2.18799,-0.14917 4.14283,0.64772 5.51055,2.37898 z"
         style="fill:#007d7a;fill-rule:evenodd"
         id="_48164760" />
      <path
         d="m 397.25042,200.70159 c -0.50563,-1.61468 -0.43122,-4.2176 -2.37898,-4.58079 -0.43795,1.01587 0,2.12032 -0.43795,3.0639 -0.59669,0.72 -1.61468,1.58457 -2.76839,1.29544 -7.9944,0.51023 -13.94539,7.53803 -20.75598,11.17523 -2.33716,1.30252 -4.94008,2.04803 -7.41685,2.69575 -0.2165,0.36354 -0.14917,0.86917 0.21437,1.08354 7.55894,0.79689 15.02433,1.51689 22.51559,2.3113 l 8.33457,-0.93649 c 0.24023,-1.08355 -1.08567,-2.02252 -0.86918,-3.27367 0.96237,-3.39519 1.2515,-7.10681 0.31465,-10.30606 0.64772,-1.73374 3.10819,-0.43795 3.24815,-2.52815 z m -5.8252,12.87815 c -1.03464,1.52185 -2.65145,0.19807 -4.06842,0.38941 -3.27366,-0.38941 -8.7913,0.38197 -12.40512,-0.0748 -0.55453,-0.31465 -0.93685,-0.86422 -0.62681,-1.36985 0.55453,-0.91807 2.07142,-0.96696 3.01287,-1.66393 3.94689,-2.45339 8.08973,-4.81394 12.59611,-5.8741 0.82027,-0.1233 1.49137,0.55453 1.63346,1.13244 0.52902,2.0902 0.19807,5.43863 -0.14209,7.46079 z"
         style="fill:#007d7a;fill-rule:evenodd"
         id="_82784152" />
      <path
         d="m 401.49176,238.12246 c 0.23988,-0.38906 0.55453,-0.81992 0.91098,-0.84579 0.45673,0.17504 0.72248,0.38905 0.79689,1.27701 -0.0744,1.40031 -0.40783,2.86582 -0.79689,4.43409 -0.43086,1.75677 -0.8876,3.58618 -0.8876,5.36847 0,0.77137 0.0932,1.56578 0.30969,2.33716 1.03464,1.30004 2.6752,1.61469 4.60417,0.9365 0.0443,-0.0255 3.32292,-1.89886 3.32292,-1.89886 2.84244,-1.68945 5.51055,-3.29705 10.52503,-4.57406 0.0907,-0.0255 0.11623,0.0188 0.13961,0.0422 0.10028,0.0744 0.12366,0.26539 0.12366,0.50563 0,0.41457 -0.12366,1.01126 -0.33803,1.47472 -0.19098,0.0911 -4.79055,2.1391 -4.79055,2.1391 -3.61169,1.58917 -7.37256,3.22937 -10.88858,5.25189 -1.03429,0.19134 -1.99666,-0.36355 -2.91473,-0.91807 l -0.24023,-0.11622 c -1.32555,-1.83154 -1.75677,-3.58831 -1.75677,-5.37095 0,-1.5913 0.33803,-3.18047 0.69661,-4.81393 0.31464,-1.51689 0.67819,-3.08268 0.74587,-4.74874 0.1233,-0.11658 0.43795,-0.48012 0.43795,-0.48012 z"
         style="fill:#007d7a;fill-rule:evenodd"
         id="_81751608" />
      <path
         d="m 288.35078,236.63143 c 2.62594,5.36847 -0.13996,10.4478 0,16.03311 0.43334,1.59166 3.56492,1.80815 2.62594,3.71197 -0.72,0.50563 -1.75677,0.64772 -2.55153,0.0744 -1.44213,-0.94358 -1.95485,-1.66358 -2.3113,-3.34842 -0.38906,-4.91174 3.53941,-10.67174 0.0744,-15.3202 -1.01126,-1.00878 -2.48599,-2.02004 -3.92847,-2.0948 -3.13157,0.58039 -4.72075,3.92633 -5.80642,6.38681 -1.65897,6.52181 -2.1157,13.43303 3.63721,18.66153 3.34842,1.94811 7.39807,4.06843 7.63795,8.28603 0.48225,0.72 1.49138,1.41661 2.3113,1.01126 1.01126,-0.0748 1.15335,-2.98949 2.59583,-1.59166 l 0.43795,0.98788 c -0.36354,1.17673 -0.72,3.20385 -2.60043,3.27153 -0.93898,0.21685 -1.97327,-0.28878 -2.74465,-0.86209 -2.0459,-2.09692 -0.46134,-5.30078 -3.87744,-6.67098 -5.65972,-1.75677 -9.37134,-7.70563 -9.94925,-13.29768 -0.35894,-5.36846 -0.1187,-11.24504 4.50638,-15.96118 1.82905,-1.3748 4.21051,-2.26948 6.54732,-1.52149 1.30039,0.22145 2.81728,1.13244 3.3952,2.24397 z"
         style="fill:#007d7a;fill-rule:evenodd"
         id="_111035472" />
      <path
         d="m 217.38117,275.88383 c -10.32661,4.79056 -13.48405,17.11914 -13.62614,17.62477 l -0.26575,1.10905 1.05555,0.36355 c 0.41244,0.1187 9.99851,3.27366 21.72579,-2.48386 11.79921,-5.7763 14.22744,-17.48268 14.32736,-17.98831 l 0.24024,-1.22811 -1.2515,-0.19098 c -0.48224,-0.0978 -12.03945,-1.90347 -22.20555,2.79389 z m 1.03465,2.23689 c 7.54016,-3.51389 16.16386,-3.10606 19.41413,-2.79141 -0.91807,2.9824 -4.06842,10.76244 -12.64535,14.98004 -8.59323,4.21051 -15.9913,3.19925 -18.68492,2.62594 1.01126,-2.98949 4.33417,-11.29394 11.91614,-14.81457 z"
         style="fill:#007d7a;fill-rule:evenodd"
         id="_111045264" />
      <path
         d="m 227.68723,252.69006 c -10.35035,4.67433 -14.17854,16.86047 -14.32771,17.39196 l -0.35646,1.15335 1.15335,0.36354 c 0.40535,0.11622 9.96803,2.9824 21.7187,-2.6263 11.84846,-5.68523 14.37661,-16.97917 14.47441,-17.45893 l 0.26575,-1.22811 -1.2515,-0.22146 c -0.45673,-0.0932 -11.48492,-1.97362 -21.67654,2.62595 z m 1.01126,2.22059 c 7.51678,-3.39697 15.72804,-2.96611 18.883,-2.62808 -0.98575,2.93563 -4.19209,10.37587 -12.75945,14.46981 -8.52839,4.07516 -15.87508,3.30378 -18.66862,2.79815 1.18346,-3.05681 4.96311,-11.22626 12.54507,-14.63988 z"
         style="fill:#007d7a;fill-rule:evenodd"
         id="_111057648" />
      <path
         d="m 241.15251,230.34242 c -10.3826,4.55527 -14.88189,16.63901 -15.04984,17.14464 l -0.46134,1.23272 1.27701,0.35894 c 0.41244,0.1233 9.94925,2.67484 21.69992,-2.81941 11.91614,-5.53394 14.5187,-16.42252 14.64201,-16.90229 l 0.26574,-1.22811 -1.22775,-0.23988 c -0.43831,-0.0748 -10.91197,-2.04838 -21.14575,2.45339 z m 0.96236,2.24397 c 7.51465,-3.30413 15.29469,-2.84279 18.35185,-2.48385 -1.01126,2.84031 -4.3083,9.96803 -12.85972,13.94539 -8.45114,3.95185 -15.72555,3.39484 -18.64276,2.9335 1.40032,-3.08267 5.61544,-11.07248 13.15063,-14.39504 z"
         style="fill:#007d7a;fill-rule:evenodd"
         id="_82872168" />
      <path
         d="m 254.49235,208.26053 c -10.38047,4.455 -15.53456,16.39665 -15.72555,16.90228 l -0.58039,1.32555 1.40031,0.34051 c 0.40571,0.0978 9.91914,2.38571 21.7187,-2.96645 11.97213,-5.41276 14.64236,-15.91654 14.76567,-16.37327 l 0.31465,-1.22811 -1.25114,-0.26327 c -0.41493,-0.10027 -10.33406,-2.12279 -20.64225,2.26276 z m 0.96236,2.2624 c 7.4654,-3.17587 14.85886,-2.6961 17.79945,-2.33717 -1.06015,2.773 -4.40858,9.58607 -12.96,13.43977 -8.35334,3.80268 -15.57885,3.4696 -18.58677,3.08268 1.61008,-3.15709 6.23268,-10.98142 13.74732,-14.18528 z"
         style="fill:#007d7a;fill-rule:evenodd"
         id="_111066936" />
      <path
         d="m 272.98841,186.1758 c -10.40598,4.33418 -16.20779,16.15926 -16.44803,16.66489 l -0.67322,1.39783 1.51689,0.34016 c 0.38196,0.0677 9.87023,2.06468 21.72082,-3.13158 11.99055,-5.30326 14.78906,-15.41338 14.90563,-15.85133 l 0.31465,-1.20012 -1.22563,-0.31465 c -0.38941,-0.0698 -9.75402,-2.19012 -20.11111,2.0948 z m 0.93686,2.26276 c 7.442,-3.08268 14.40212,-2.57705 17.24492,-2.18799 -1.10445,2.71913 -4.50178,9.17327 -13.05319,12.95291 -8.33457,3.66059 -15.46016,3.52063 -18.54284,3.20599 1.85492,-3.20599 6.85985,-10.86272 14.35111,-13.97091 z"
         style="fill:#007d7a;fill-rule:evenodd"
         id="_111358368" />
      <path
         d="m 293.3883,164.86494 c -10.43185,4.21512 -16.91185,15.9424 -17.17512,16.44803 l -0.7898,1.46551 1.63346,0.31465 c 0.41244,0.0748 9.87697,1.78264 21.72543,-3.32256 12.06532,-5.1541 14.94992,-14.85673 15.07323,-15.26421 l 0.34051,-1.23272 -1.23271,-0.28913 c -0.35894,-0.0932 -9.19914,-2.31378 -19.575,1.88043 z m 0.91346,2.26276 c 7.36512,-2.95937 13.94291,-2.43036 16.68791,-2.02252 -1.15334,2.62594 -4.64846,8.79129 -13.17437,12.4285 -8.23677,3.53693 -15.28972,3.56279 -18.47019,3.34594 2.07141,-3.25523 7.48878,-10.71354 14.95665,-13.75192 z"
         style="fill:#007d7a;fill-rule:evenodd"
         id="_111528120" />
      <path
         d="m 315.15589,144.73541 c -10.44815,4.06843 -17.58047,15.69543 -17.87173,16.20106 l -0.93685,1.54241 1.78264,0.28913 c 0.41244,0.0489 9.85146,1.49138 21.72579,-3.465 12.10677,-5.03752 15.07322,-14.35323 15.18944,-14.7398 l 0.38941,-1.2026 -1.20259,-0.34016 c -0.34016,-0.0907 -8.64922,-2.38571 -19.07611,1.71496 l 0,0 z m 0.8876,2.26276 c 7.30028,-2.8428 13.51453,-2.31166 16.15925,-1.9063 -1.22563,2.55401 -4.76504,8.40472 -13.29094,11.94874 -8.11311,3.39023 -15.12213,3.61169 -18.39579,3.465 2.33469,-3.29953 8.11347,-10.59732 15.52748,-13.50744 l 0,0 z"
         style="fill:#007d7a;fill-rule:evenodd"
         id="_114230976" />
      <path
         d="m 337.79479,126.14155 c -10.48075,3.97028 -18.2537,15.48567 -18.56834,15.96792 l -1.11154,1.65685 1.98071,0.24236 c 0.38197,0.0489 9.79547,1.18346 21.7187,-3.63756 12.13972,-4.90712 15.2224,-13.82173 15.33862,-14.20405 l 0.38941,-1.16044 -1.18382,-0.38197 c -0.31004,-0.0978 -8.06421,-2.48385 -18.56374,1.51689 z m 0.86209,2.26241 c 7.25138,-2.74252 13.07657,-2.188 15.61145,-1.75678 -1.27665,2.47926 -4.91385,8.04579 -13.36748,11.46154 -8.06917,3.25524 -14.98003,3.6372 -18.32846,3.58618 2.57705,-3.34594 8.6935,-10.47366 16.08449,-13.29094 z"
         style="fill:#007d7a;fill-rule:evenodd"
         id="_48808752" />
      <path
         d="m 360.78979,109.47667 c -10.49953,3.87957 -18.90177,15.29008 -19.26531,15.7702 l -1.27666,1.71496 2.14583,0.2165 c 0.38232,0.0489 9.77705,0.88795 21.7187,-3.80481 12.21201,-4.79551 15.36201,-13.29803 15.48567,-13.65448 l 0.40783,-1.16044 -1.15334,-0.38197 c -0.28914,-0.1233 -7.51465,-2.57704 -18.06272,1.30004 z m 0.84331,2.28827 c 7.17661,-2.62594 12.64535,-2.09693 15.04984,-1.6402 -1.32555,2.38571 -5.00705,7.65638 -13.45854,10.97929 -7.97103,3.13158 -14.7887,3.66272 -18.23032,3.68823 2.81693,-3.37393 9.29232,-10.30819 16.63902,-13.02732 z"
         style="fill:#007d7a;fill-rule:evenodd"
         id="_48137184" />
      <path
         d="m 200.86334,252.52494 c -0.31465,0.38197 -7.48878,9.70228 -8.23429,20.92393 -0.748,11.44063 8.59322,20.15752 9.00567,20.52319 l 0.82027,0.7689 0.8387,-0.7689 c 0.31465,-0.26539 7.70563,-7.22551 8.26016,-20.3276 0.60555,-13.1974 -8.56772,-20.97992 -8.95677,-21.31086 l -0.96236,-0.79689 -0.77138,0.98823 z m -5.83229,22.19846 c 0,-0.35646 0.0259,-0.72 0.0514,-1.10197 0.52902,-8.40933 5.07969,-15.80279 6.91087,-18.47055 2.12067,2.18799 7.15571,8.30445 7.15571,17.33563 0,0.33803 0,0.69662 -0.023,1.06016 -0.43831,9.63496 -4.86532,15.65362 -6.69685,17.74807 -2.07142,-2.2135 -7.39808,-8.66764 -7.39808,-16.57134 z"
         style="fill:#007d7a;fill-rule:evenodd"
         id="_82940240" />
      <path
         d="m 215.43094,227.3834 c -0.23989,0.2654 -6.09059,6.71988 -8.57445,15.96792 -0.33343,1.27452 -0.59882,2.59582 -0.77138,3.99366 -1.34221,11.07956 6.6522,20.16 7.01114,20.54196 l 0.7689,0.89469 0.92055,-0.77102 c 0.33307,-0.26575 7.87075,-6.81804 9.4135,-19.55658 1.53992,-12.85972 -6.67098,-20.80523 -7.03452,-21.11953 l -0.88796,-0.86917 -0.84578,0.91807 z m -7.05083,22.46421 c 0,-0.72 0.0422,-1.44248 0.13996,-2.18799 0.14209,-1.27701 0.38445,-2.50264 0.69661,-3.66307 1.78264,-6.64512 5.49426,-11.8226 7.15323,-13.91988 1.76173,2.07177 5.56654,7.51465 5.56654,15.27165 0,0.8876 -0.0489,1.85457 -0.17221,2.81693 -1.10445,9.27142 -5.7274,15.02433 -7.65673,17.09575 -1.73374,-2.28827 -5.7274,-8.30445 -5.7274,-15.41339 z"
         style="fill:#007d7a;fill-rule:evenodd"
         id="_82893400" />
      <path
         d="m 231.78117,203.80765 c -0.26575,0.23989 -6.40559,5.9439 -9.5113,15.14764 -0.38232,1.17673 -0.72248,2.43036 -0.98823,3.87284 -1.92224,10.72063 4.74874,20.13413 5.01201,20.54657 l 0.74799,1.02969 1.00914,-0.78981 c 0.31429,-0.26326 8.04579,-6.42862 10.52468,-18.78271 2.50264,-12.50327 -4.76468,-20.61638 -5.07933,-20.95689 l -0.82027,-0.8876 -0.89469,0.82027 z m -8.37673,22.97197 c 0,-1.15334 0.0978,-2.36267 0.31217,-3.53905 0.21685,-1.3004 0.50562,-2.43496 0.86456,-3.49512 2.21811,-6.54768 6.14693,-11.27091 7.92709,-13.16976 1.39323,1.94811 4.13823,6.67098 4.13823,13.15098 0,1.46799 -0.14244,3.00827 -0.4826,4.64138 -1.78016,8.88945 -6.5452,14.35819 -8.61662,16.40622 -1.37692,-2.31378 -4.14283,-7.75701 -4.14283,-13.99465 z"
         style="fill:#007d7a;fill-rule:evenodd"
         id="_82889776" />
      <path
         d="m 249.74609,181.76758 c -0.28452,0.21649 -6.68976,5.20299 -10.45063,14.33445 -0.43086,1.05307 -0.81779,2.28826 -1.15086,3.70488 -2.53524,10.35708 2.74252,20.13413 2.9824,20.54196 l 0.64771,1.20225 1.13493,-0.81319 c 0.33767,-0.22358 8.21126,-6.02327 11.65712,-17.96492 3.465,-12.13973 -2.84244,-20.44878 -3.10571,-20.78894 l -0.74586,-0.96236 -0.9691,0.74587 z m -9.82134,23.82236 c 0,-1.6891 0.1676,-3.47173 0.57331,-5.20299 0.31429,-1.30004 0.67784,-2.41158 1.06016,-3.37146 2.65146,-6.40559 6.77126,-10.69051 8.67472,-12.42886 1.03677,1.78051 2.88461,5.70898 2.88461,10.98425 0,1.99914 -0.23988,4.18713 -0.91099,6.52394 -2.46047,8.50039 -7.36759,13.70339 -9.58606,15.70252 -0.96236,-2.19012 -2.69575,-6.86197 -2.69575,-12.2074 z"
         style="fill:#007d7a;fill-rule:evenodd"
         id="_82869456" />
      <path
         d="m 269.20912,161.25112 c -0.28878,0.17256 -6.96011,4.43161 -11.36834,13.48866 -0.50563,1.01126 -0.96236,2.1391 -1.39819,3.58831 -3.10819,9.9939 0.81779,20.08523 1.00913,20.51645 l 0.55666,1.37481 1.25114,-0.82028 c 0.33803,-0.23988 8.3583,-5.63421 12.7435,-17.19354 4.45039,-11.78079 -0.89504,-20.23228 -1.13492,-20.59087 l -0.64772,-1.01126 -1.01126,0.64772 z m -11.492,25.23933 c 0,-2.38606 0.29126,-4.93724 1.06015,-7.43988 0.41492,-1.30252 0.79689,-2.33717 1.2515,-3.23185 3.08268,-6.33083 7.42358,-10.18488 9.3972,-11.7248 0.74552,1.53992 1.89886,4.59956 1.89886,8.71653 0,2.50264 -0.43334,5.37095 -1.61008,8.50252 -3.05716,8.11807 -8.14358,13.05071 -10.49917,15.0548 -0.60378,-2.00409 -1.49846,-5.6413 -1.49846,-9.87732 z"
         style="fill:#007d7a;fill-rule:evenodd"
         id="_82898896" />
      <path
         d="m 290.03987,142.22604 c -0.28878,0.14918 -7.2,3.66272 -12.32823,12.64536 -0.53149,0.98574 -1.03712,2.07141 -1.56578,3.44622 -3.71197,9.62787 -1.11154,20.03633 -0.98823,20.4672 l 0.40783,1.58917 1.40032,-0.86917 c 0.33094,-0.19098 8.51882,-5.22638 13.84547,-16.39913 5.41984,-11.39173 1.03677,-19.98496 0.8387,-20.34851 l -0.55453,-1.06228 -1.05555,0.53114 0,0 z m -13.41425,27.59988 c 0,-3.22972 0.40783,-7.0324 1.78264,-10.64622 0.50563,-1.25114 0.93685,-2.23689 1.44212,-3.10606 3.53729,-6.19087 8.04579,-9.63 10.14059,-10.98177 0.45674,1.27701 1.08603,3.4976 1.08603,6.55476 0,2.88461 -0.5804,6.44705 -2.48386,10.42477 -3.6815,7.75452 -8.91036,12.40299 -11.41299,14.30185 -0.2654,-1.49138 -0.55453,-3.80268 -0.55453,-6.54733 z"
         style="fill:#007d7a;fill-rule:evenodd"
         id="_117735336" />
      <path
         d="m 312.14763,124.67356 c -0.31465,0.1187 -7.43989,2.91012 -13.27217,11.79957 -0.59882,0.93898 -1.17886,2.02252 -1.78228,3.29917 -4.25941,9.27142 -3.00827,19.98744 -2.95937,20.41866 l 0.21685,1.78229 1.58917,-0.86422 c 0.35858,-0.19098 8.66764,-4.81393 14.93327,-15.60224 6.40559,-11.03528 2.9824,-19.77768 2.83571,-20.13661 l -0.45673,-1.13457 -1.10445,0.43795 z m -15.77445,31.30689 c 0,-3.80516 0.47976,-9.85146 2.94059,-15.19689 0.54744,-1.18346 1.07858,-2.14582 1.6076,-2.9661 4.00074,-6.09059 8.6935,-9.09886 10.86271,-10.28268 0.24024,0.99284 0.4826,2.43496 0.4826,4.35969 0,3.20386 -0.72248,7.56354 -3.49051,12.37748 -4.31539,7.39771 -9.68634,11.7574 -12.35409,13.60736 -0.0255,-0.53114 -0.0489,-1.15335 -0.0489,-1.89886 z"
         style="fill:#007d7a;fill-rule:evenodd"
         id="_47326760" />
      <path
         d="m 335.43459,108.58447 c -0.31464,0.0723 -7.65921,2.16921 -14.21114,10.96051 -0.6711,0.88795 -1.34929,1.92472 -1.97362,3.10146 -4.86283,8.91496 -4.9376,19.94315 -4.9376,20.42539 l 0.0259,1.94811 1.73126,-0.86457 c 0.38905,-0.19098 8.86571,-4.45748 16.06571,-14.85673 7.3187,-10.62283 4.88834,-19.50732 4.79055,-19.87086 l -0.34016,-1.17674 -1.15087,0.33343 z m -14.03893,15.24579 c 0.5733,-1.08603 1.17673,-1.99701 1.78264,-2.8428 4.4759,-5.97437 9.3646,-8.60031 11.627,-9.56268 0.0489,0.58004 0.12366,1.25363 0.12366,2.14583 0,3.27402 -0.79689,8.52591 -4.81641,14.35358 -4.88835,7.03418 -10.40599,11.12599 -13.24878,12.93414 0.26575,-3.58831 1.18382,-10.93748 4.53189,-17.02807 z"
         style="fill:#007d7a;fill-rule:evenodd"
         id="_81988928" />
      <path
         d="m 359.68074,93.916594 c -0.30969,0.0489 -7.82433,1.449213 -15.14764,10.068306 -7.24429,8.60032 -8.95925,22.76008 -9.02658,23.3589 l -0.24023,2.12031 1.94811,-0.86917 c 0.36354,-0.16512 9.00779,-4.04468 17.12126,-14.08748 8.28567,-10.20791 6.81767,-19.239448 6.76878,-19.602992 l -0.2165,-1.202244 -1.2072,0.21437 z M 346.41353,105.5762 c 4.96311,-5.850708 10.01693,-8.094684 12.3541,-8.865708 0.0255,0.0489 0.0255,0.07441 0.0255,0.146693 0,2.842795 -0.74551,9.199135 -6.35634,16.133385 -5.44323,6.71988 -11.15433,10.52504 -14.11335,12.2563 0.79689,-4.35721 3.0104,-13.67291 8.09008,-19.67067 z"
         style="fill:#007d7a;fill-rule:evenodd"
         id="_82907120" />
      <path
         d="m 127.41484,215.24368 c 0,59.17216 32.00102,116.07484 83.53558,148.56555 l 2.14583,1.32342 1.54028,-2.00161 c 0.43086,-0.55666 0.60342,-1.10445 0.60342,-1.5913 0,-1.27701 -1.08354,-2.2624 -1.68945,-2.83571 l -2.9824,-2.86618 c -10.64622,-12.06496 -13.48866,-23.50807 -13.48866,-32.29937 0,-9.72815 3.49512,-16.22658 3.7839,-16.71378 l 0.93897,-1.73126 -1.30252,-1.46764 c -21.79311,-24.29575 -33.27803,-54.83834 -33.27803,-88.38212 0,-73.78902 60.01122,-133.797755 133.79988,-133.797755 20.5161,0 40.18925,4.499646 58.49185,13.414252 l 1.90595,0.93685 26.87279,-30.682558 -2.95937,-1.658976 C 359.68109,49.176674 330.52038,41.638997 301.02164,41.638997 c -95.74972,0 -173.6068,77.880473 -173.6068,173.604683 l 0,0 z m 5.48716,0 c 0,-92.69043 75.42709,-168.094132 168.11964,-168.094132 27.40181,0 54.49819,6.794646 78.5537,19.530709 -3.53941,4.026614 -17.4359,19.919763 -19.60512,22.347991 -18.49393,-8.667992 -38.30881,-13.09996 -58.94858,-13.09996 -76.82244,0 -139.34303,62.495082 -139.34303,139.315392 0,34.27051 11.61071,65.55189 33.55052,90.64452 -1.27666,2.91473 -3.52063,9.29693 -3.52063,17.74807 0,6.98563 1.61468,15.36449 6.5544,24.27945 C 157.5868,315.52316 132.902,266.24675 132.902,215.24368 Z"
         style="fill:#007d7a;fill-rule:evenodd"
         id="_82162616" />
      <path
         d="m 361.92365,89.922933 c -19.07398,-9.296929 -39.54366,-13.994645 -60.90342,-13.994645 -76.82244,0 -139.34303,62.495082 -139.34303,139.315392 0,34.89519 11.99728,66.75413 34.70385,92.06822 l 2.38607,2.64473 10.59732,-15.98457 -0.55453,-0.6548 c -0.96236,-0.11622 -1.73374,-0.26539 -2.31165,-0.38197 0.13996,-0.43795 0.35681,-1.01126 0.59669,-1.64055 -0.81319,-0.98539 -1.65685,-1.99665 -2.45374,-3.00791 -0.84331,1.36771 -1.65649,2.35559 -2.2135,3.00791 -2.07142,-2.2135 -7.39807,-8.66764 -7.39807,-16.57134 0,-0.23988 0.0259,-0.50563 0.0259,-0.74551 -9.89574,-17.43378 -14.93114,-37.10657 -14.93114,-58.73421 0,-66.65421 54.23244,-120.889133 120.89587,-120.889133 16.34775,0 32.12468,3.199252 46.98141,9.488263 1.5913,-1.66393 3.15709,-2.96645 4.62508,-3.975231 -16.25705,-7.27689 -33.59268,-11.030669 -51.60649,-11.030669 -69.72059,0 -126.43229,56.71169 -126.43229,126.40677 0,30.22086 9.43937,56.7861 27.90745,79.08484 -1.05308,1.61504 -2.57493,3.90295 -4.2828,6.50338 -20.22732,-23.83901 -30.99224,-53.29594 -30.99224,-85.58822 0,-73.78902 60.01122,-133.797755 133.79988,-133.797755 19.60299,0 38.40661,4.166221 56.01507,12.305197 -0.74799,1.589173 -1.44956,3.157441 -2.19508,4.723228 1.63807,-0.920551 2.98949,-1.475078 3.92634,-1.763858 0.0255,0.0489 0.0255,0.07441 0.0255,0.146693 0,2.071417 -0.40783,5.999885 -2.79389,10.667125 l 0.6222,0.31465 7.73114,-16.76268 -2.42787,-1.153347 0,0 z"
         style="fill:#007d7a;fill-rule:evenodd"
         id="_49059128" />
      <path
         d="m 360.67286,62.58632 -13.32354,16.862952 c 1.23272,0.405354 2.43496,0.83622 3.6372,1.300039 l 13.22327,-16.713779 c -1.15795,-0.50563 -2.33468,-0.985393 -3.53693,-1.449212 z"
         style="fill:#007d7a;fill-rule:evenodd"
         id="_122255456" />
      <path
         d="m 334.61432,54.831792 -7.78004,19.246535 c 1.23236,0.216851 2.45799,0.456732 3.66059,0.722481 l 7.75665,-19.174252 c -1.22811,-0.284528 -2.43496,-0.531496 -3.6372,-0.794764 z"
         style="fill:#007d7a;fill-rule:evenodd"
         id="_111525640" />
      <path
         d="m 303.59869,51.367147 -1.90595,20.399881 c 1.22563,0 2.46048,0.01843 3.66272,0.04181 l 1.92225,-20.343897 c -1.22563,-0.02551 -2.45339,-0.07441 -3.67902,-0.09779 z"
         style="fill:#007d7a;fill-rule:evenodd"
         id="_81748496" />
      <path
         d="m 273.37074,53.678446 3.87708,20.036338 c 1.20933,-0.190984 2.41158,-0.389055 3.63721,-0.554528 l -3.87709,-20.06185 c -1.22563,0.172205 -2.42787,0.363544 -3.6372,0.58004 z"
         style="fill:#007d7a;fill-rule:evenodd"
         id="_48970056" />
      <path
         d="m 244.06759,61.526162 9.17362,18.402874 c 1.15335,-0.412441 2.31378,-0.79441 3.49051,-1.183465 l -9.19913,-18.445039 c -1.15122,0.412441 -2.31165,0.817796 -3.465,1.22563 z"
         style="fill:#007d7a;fill-rule:evenodd"
         id="_47284000" />
      <path
         d="m 216.25121,74.991792 13.68,15.627755 c 1.07858,-0.622204 2.16461,-1.22811 3.27366,-1.831535 L 219.45259,73.085847 c -1.07858,0.628937 -2.14122,1.276653 -3.20138,1.905945 z"
         style="fill:#007d7a;fill-rule:evenodd"
         id="_48122368" />
      <path
         d="m 190.9885,93.848917 17.2683,11.990553 c 0.95988,-0.81992 1.94776,-1.61469 2.94059,-2.43496 L 193.80542,91.339547 c -0.93649,0.820276 -1.89885,1.666063 -2.81692,2.50937 z"
         style="fill:#007d7a;fill-rule:evenodd"
         id="_82943656" />
      <path
         d="m 169.48417,117.51785 19.84535,7.72902 c 0.81319,-1.01126 1.63346,-1.99701 2.45339,-2.95937 l -19.98709,-7.80343 c -0.7689,1.01126 -1.54028,2.02252 -2.31165,3.03378 z"
         style="fill:#007d7a;fill-rule:evenodd"
         id="_111743952" />
      <path
         d="m 152.89405,145.09187 21.35515,2.98488 c 0.60591,-1.17673 1.23272,-2.3113 1.88044,-3.43913 l -21.55323,-3.0104 c -0.57791,1.15335 -1.15795,2.31378 -1.68236,3.46465 z"
         style="fill:#007d7a;fill-rule:evenodd"
         id="_81670368" />
      <path
         d="m 142.00795,175.3386 21.76759,-2.08984 c 0.41244,-1.25823 0.82028,-2.53524 1.22811,-3.78638 l -21.98657,2.09693 c -0.36354,1.25114 -0.69449,2.50264 -1.00913,3.77929 z"
         style="fill:#007d7a;fill-rule:evenodd"
         id="_82778632" />
      <path
         d="m 137.28507,207.00691 21.07063,-7.31658 c 0.14917,-1.35142 0.31465,-2.70071 0.4826,-4.04964 l -21.31335,7.41437 c -0.0932,1.30252 -0.16547,2.62807 -0.23988,3.95185 l 0,0 z"
         style="fill:#007d7a;fill-rule:evenodd"
         id="_49035160" />
      <path
         d="m 138.92527,239.01041 19.02508,-12.49618 c -0.10028,-1.39358 -0.19099,-2.7939 -0.26575,-4.21051 l -19.33937,12.68716 c 0.19098,1.34929 0.36354,2.67484 0.58004,4.01953 z"
         style="fill:#007d7a;fill-rule:evenodd"
         id="_82868520" />
      <path
         d="m 147.03873,270.32191 15.43677,-17.00256 c -0.38232,-1.4237 -0.72248,-2.86583 -1.06015,-4.29201 l -15.7702,17.36823 c 0.45461,1.3259 0.91134,2.6263 1.39358,3.92634 z"
         style="fill:#007d7a;fill-rule:evenodd"
         id="_82947392" />
      <path
         d="m 161.56204,300.22848 10.93039,-20.78185 c -0.6711,-1.34929 -1.36771,-2.69362 -1.997,-4.06843 l -11.12847,21.17091 c 0.72248,1.22563 1.44957,2.47713 2.19508,3.67937 z"
         style="fill:#007d7a;fill-rule:evenodd"
         id="_82847744" />
      <path
         d="m 180.17468,325.15316 5.85531,-24.05551 c -0.96697,-1.27701 -1.92933,-2.57704 -2.84031,-3.87744 l -5.94851,24.58701 c 0.95988,1.13244 1.94776,2.23689 2.93351,3.34594 z"
         style="fill:#007d7a;fill-rule:evenodd"
         id="_47020472" />
      <path
         d="m 357.94806,109.06423 c 0.50563,0.31465 1.01126,0.65481 1.49102,0.99284 0.46382,-0.19807 0.89504,-0.41244 1.35177,-0.5804 0.52867,-0.19098 1.06016,-0.36319 1.5913,-0.52866 -1.13492,-0.74586 -2.19012,-1.59165 -3.20634,-2.48386 -0.33307,0.84331 -0.77102,1.71248 -1.22775,2.60008 z"
         style="fill:#007d7a;fill-rule:evenodd"
         id="_48970168" />
      <path
         id="path53"
         style="fill:#007d7a;fill-rule:evenodd"
         d="m 570.52168,470.35966 8.82779,0 0,-0.78981 -2.83961,0 0,-22.00039 1.50378,0 c 1.74933,0.0195 3.00331,0.58252 3.76264,1.69335 0.73311,1.13456 1.17177,2.57598 1.30358,4.31291 l 1.48607,0 -0.23776,-6.8028 -18.18886,0 -0.37665,6.8028 0.88441,0 c 0.17468,-0.8961 0.34441,-1.7178 0.49571,-2.47004 0.12543,-0.35787 0.23102,-0.69697 0.3196,-1.01622 0.0868,-0.33272 0.2002,-0.62008 0.33166,-0.86528 0.30047,-0.53929 0.70228,-0.94677 1.20437,-1.22279 0.47693,-0.28772 1.10232,-0.43193 1.88114,-0.43193 l 2.31909,0 0,22.00039 -2.67696,0 0,0.78981 z m -27.27071,0 8.97909,0 0,-0.78981 -2.94023,0 0,-10.82799 c 0.0818,0 0.1637,0 0.23704,0 1.48642,0 2.57847,0.22713 3.28571,0.6711 0.38976,0.28949 0.68421,0.71433 0.88441,1.27949 0.21366,0.53929 0.34512,1.2724 0.3887,2.19402 l 0.75225,0 0,-8.68996 -0.7891,0 c -0.0624,0.87838 -0.20764,1.54913 -0.41421,2.02606 -0.22642,0.49358 -0.53256,0.85819 -0.92162,1.08957 -0.38834,0.23917 -0.85854,0.38338 -1.40456,0.43299 -0.56445,0.0691 -1.24229,0.11303 -2.01862,0.13854 l 0,-10.31421 4.3448,0 c 0.0691,0 0.13146,0 0.19417,0 1.97575,0 3.31725,0.36886 4.01882,1.10303 0.71469,0.77811 1.28622,2.22555 1.71744,4.36394 l 1.19728,0 -0.29338,-6.26351 -17.21799,0 0,0.79654 2.72905,0 0,22.00039 -2.72905,0 0,0.78981 z m -28.13669,0 6.65964,0 0,-0.78981 -2.93527,0 2.43921,-7.79208 6.52606,0 2.35807,7.79208 -2.86512,0 0,0.78981 8.7091,0 0,-0.78981 -2.38961,0 -7.04622,-23.10519 -1.33583,0 -7.41649,23.10519 -2.70354,0 0,0.78981 z m 12.33992,-9.54851 -5.88083,0 3.00933,-9.5935 0.0694,0 2.80205,9.5935 z m -25.39559,-3.10393 -9.87024,0 0,-10.13776 2.67768,0 0,-0.79654 -8.60811,0 0,0.79654 2.62736,0 0,22.00039 -2.62736,0 0,0.78981 8.60811,0 0,-0.78981 -2.67768,0 0,-10.8659 9.87024,0 0,10.8659 -2.67804,0 0,0.78981 9.4043,0 0,-0.78981 -3.42319,0 0,-22.00039 3.42319,0 0,-0.79654 -9.4043,0 0,0.79654 2.67804,0 0,10.13776 z m -24.02327,-4.63926 0,-6.00059 -0.50705,0 -1.17319,1.03465 c -0.7898,-0.60165 -1.56047,-1.07185 -2.3198,-1.39748 -0.80291,-0.30827 -1.70469,-0.46417 -2.70142,-0.46417 -2.5083,0.0436 -4.77177,1.20366 -6.79748,3.46677 -2.10543,2.26346 -3.17728,5.17358 -3.22299,8.72256 0,3.48413 0.87165,6.407 2.60858,8.75834 1.68059,2.40768 4.1074,3.64181 7.28044,3.71091 0.0241,0 0.0563,0 0.0804,0 1.90665,0 3.6737,-0.66437 5.29831,-1.98071 l 0.95315,1.44142 0.91488,0 0,-6.40701 -0.83303,0 c -0.43335,1.61114 -1.16646,2.99657 -2.18906,4.15027 -1.04669,1.19764 -2.41405,1.80603 -4.10598,1.83154 -2.59512,-0.0255 -4.28244,-1.01622 -5.06055,-2.97248 -0.4128,-0.94713 -0.68245,-2.0498 -0.82028,-3.32256 -0.15094,-1.25504 -0.2328,-2.64685 -0.2328,-4.18287 0,-0.12544 -0.006,-0.27 -0.006,-0.40784 0,-1.05307 0.0815,-2.45055 0.23882,-4.15027 0.0928,-0.92162 0.24378,-1.8365 0.45071,-2.73367 0.18142,-0.86527 0.42094,-1.61787 0.72071,-2.26346 0.35787,-0.70122 0.93437,-1.34787 1.73657,-1.93713 0.77847,-0.59527 1.71284,-0.9085 2.80311,-0.93401 1.79929,0.0255 3.17941,0.59492 4.13752,1.71071 0.97937,1.13527 1.63099,2.57173 1.95662,4.32708 l 0.7898,0 z m -38.67272,17.39906 1.47296,-1.53603 c 0.72744,0.6952 1.53673,1.19764 2.42716,1.50378 0.91488,0.30685 1.85563,0.46418 2.81551,0.46418 4.83449,-0.0928 7.31126,-2.7078 7.42359,-7.85516 0,-1.19268 -0.17079,-2.21988 -0.5028,-3.06744 -0.3437,-0.83268 -0.83339,-1.50378 -1.46728,-2.01756 -1.27878,-1.04173 -2.77654,-1.76846 -4.48902,-2.19543 -0.7898,-0.25051 -1.56649,-0.50103 -2.31909,-0.7402 -0.80256,-0.20551 -1.51051,-0.46878 -2.11926,-0.77705 -0.6144,-0.29941 -1.10409,-0.68386 -1.46657,-1.16008 -0.39508,-0.44433 -0.58925,-1.02755 -0.58925,-1.74153 0,-0.67748 0.16193,-1.28516 0.48791,-1.8248 0.26291,-0.54603 0.62752,-0.99071 1.08496,-1.34859 0.9776,-0.75897 2.07532,-1.14094 3.29173,-1.14094 1.54949,0.0255 2.80949,0.5198 3.79276,1.48642 0.9535,0.99 1.63134,2.23122 2.01933,3.74279 l 0.69059,0 0,-5.48646 -0.48933,0 -1.28622,1.02296 c -0.38835,-0.30225 -1.01551,-0.62823 -1.8815,-0.98611 -0.88866,-0.3561 -1.76031,-0.54531 -2.60114,-0.5694 -1.29189,0.0241 -2.35807,0.25653 -3.20421,0.70795 -0.89043,0.47019 -1.58563,1.07858 -2.08807,1.81169 -0.92091,1.25362 -1.39748,2.55827 -1.39748,3.91358 0,0.0365 0,0.0687 0,0.10559 0,1.01622 0.21331,1.99347 0.65126,2.93457 0.43335,0.99 1.13527,1.81205 2.11358,2.47004 0.45815,0.23917 1.54949,0.65161 3.2726,1.24264 1.73728,0.63212 3.00366,1.10197 3.80622,1.41023 1.28551,0.4943 2.13768,1.04634 2.55154,1.66146 0.36956,0.58925 0.55275,1.37232 0.55275,2.33858 0,0.05 0,0.0928 0,0.14457 -0.0262,1.57287 -0.60874,2.81551 -1.74366,3.71055 -1.1537,0.9404 -2.49555,1.4113 -4.02484,1.4113 -1.6441,-0.0195 -3.03591,-0.58287 -4.18925,-1.67421 -1.13528,-1.05945 -1.94882,-2.40768 -2.42575,-4.03193 l -0.65126,0 0,6.07004 0.48153,0 z m -24.27696,-0.10736 17.60562,0 0.3756,-6.58843 -0.68351,0 c -0.18815,1.22776 -0.65834,2.47606 -1.40457,3.7428 -0.37559,0.56338 -0.84543,1.03996 -1.40456,1.41696 -0.57614,0.4252 -1.22776,0.63886 -1.96795,0.63886 l -6.44599,0 0,-22.00039 3.4735,0 0,-0.79654 -9.54814,0 0,0.79654 2.77157,0 0,22.00039 -2.77157,0 0,0.78981 z m -23.76355,0 17.59925,0 0.38197,-6.58843 -0.69023,0 c -0.18744,1.22776 -0.65126,2.47606 -1.40422,3.7428 -0.37559,0.56338 -0.83905,1.03996 -1.40456,1.41696 -0.56977,0.4252 -1.22776,0.63886 -1.96122,0.63886 l -6.44599,0 0,-22.00039 3.47351,0 0,-0.79654 -9.54851,0 0,0.79654 2.76555,0 0,22.00039 -2.76555,0 0,0.78981 z m -25.25775,0 18.38976,0 0.4702,-6.59516 -0.91488,0 c -0.41422,2.52638 -1.14768,4.14425 -2.20075,4.85823 -0.98504,0.63389 -2.55827,0.95386 -4.66406,0.95386 -0.13323,0 -0.28275,-0.007 -0.42059,-0.007 l -4.36464,0 0,-10.93535 c 0.18815,0 0.37559,-0.011 0.55878,-0.011 1.41732,0 2.47712,0.24378 3.1911,0.72071 0.77067,0.53965 1.19764,1.73658 1.29189,3.57272 l 0.75118,0 0,-8.92736 -0.75118,0 c -0.0942,0.92126 -0.23882,1.63063 -0.43973,2.12492 -0.23102,0.5198 -0.54567,0.89752 -0.93401,1.12854 -0.64559,0.36461 -1.71744,0.53929 -3.16559,0.53929 -0.15697,0 -0.33839,-0.006 -0.50244,-0.006 l 0,-10.20685 4.45783,0 c 0.0627,0 0.12012,0 0.18248,0 1.485,0 2.70815,0.29516 3.66803,0.87768 0.50067,0.33874 0.92729,0.83303 1.27276,1.49279 0.30685,0.66437 0.53929,1.53603 0.6835,2.59547 l 0.75154,0 0,-5.76248 -17.31118,0 0,0.79654 2.9909,0 0,22.00039 -2.9909,0 0,0.78981 z m -21.43063,0.10736 1.47331,-1.53603 c 0.72708,0.6952 1.53602,1.19764 2.43354,1.50378 0.91453,0.30685 1.8489,0.46418 2.8148,0.46418 4.83484,-0.0928 7.30524,-2.7078 7.41721,-7.85516 0,-1.19268 -0.17044,-2.21988 -0.50209,-3.06744 -0.3437,-0.83268 -0.83303,-1.50378 -1.46764,-2.01756 -1.27878,-1.04173 -2.77653,-1.76846 -4.48901,-2.19543 -0.79016,-0.25051 -1.56048,-0.50103 -2.31945,-0.7402 -0.80221,-0.20551 -1.50378,-0.46878 -2.1189,-0.77705 -0.61441,-0.29941 -1.10409,-0.68386 -1.46693,-1.16008 -0.38799,-0.44433 -0.58394,-1.02755 -0.58394,-1.74153 0,-0.67748 0.15697,-1.28516 0.4826,-1.8248 0.27036,-0.54603 0.62823,-0.99071 1.08567,-1.34859 0.97725,-0.75897 2.07532,-1.14094 3.29209,-1.14094 1.54878,0.0255 2.8148,0.5198 3.79275,1.48642 0.95953,0.99 1.63028,2.23122 2.01863,3.74279 l 0.69059,0 0,-5.48646 -0.48969,0 -1.27949,1.02296 c -0.39472,-0.30225 -1.02224,-0.62823 -1.88716,-0.98611 -0.88937,-0.3561 -1.75429,-0.54531 -2.60185,-0.5694 -1.29225,0.0241 -2.35807,0.25653 -3.20351,0.70795 -0.89114,0.47019 -1.58598,1.07858 -2.08204,1.81169 -0.92764,1.25362 -1.40457,2.55827 -1.40457,3.91358 0,0.0365 0,0.0687 0,0.10559 0,1.01622 0.21968,1.99347 0.65161,2.93457 0.43335,0.99 1.1413,1.81205 2.12032,2.47004 0.45106,0.23917 1.54275,0.65161 3.26622,1.24264 1.73657,0.63212 3.00331,1.10197 3.80586,1.41023 1.29225,0.4943 2.13804,1.04634 2.55225,1.66146 0.36886,0.58925 0.55205,1.37232 0.55205,2.33858 0,0.05 0,0.0928 0,0.14457 -0.0262,1.57287 -0.60166,2.81551 -1.74367,3.71055 -1.1537,0.9404 -2.48881,1.4113 -4.01881,1.4113 -1.64339,-0.0195 -3.04193,-0.58287 -4.1889,-1.67421 -1.14166,-1.05945 -1.94847,-2.40768 -2.43213,-4.03193 l -0.65126,0 0,6.07004 0.48154,0 z m -26.10851,-0.10736 18.39579,0 0.46382,-6.59516 -0.90886,0 c -0.4135,2.52638 -1.14767,4.14425 -2.20004,4.85823 -0.99071,0.63389 -2.55897,0.95386 -4.66441,0.95386 -0.13181,0 -0.28275,-0.007 -0.42059,-0.007 l -4.36393,0 0,-10.93535 c 0.18708,0 0.37063,-0.011 0.55204,-0.011 1.41697,0 2.4828,0.24378 3.19678,0.72071 0.77244,0.53965 1.19763,1.73658 1.28622,3.57272 l 0.75862,0 0,-8.92736 -0.75862,0 c -0.0886,0.92126 -0.23315,1.63063 -0.43371,2.12492 -0.23102,0.5198 -0.54566,0.89752 -0.93437,1.12854 -0.64488,0.36461 -1.71744,0.53929 -3.16488,0.53929 -0.15732,0 -0.33874,-0.006 -0.50208,-0.006 l 0,-10.20685 4.45677,0 c 0.0645,0 0.12082,0 0.18319,0 1.48641,0 2.70744,0.29516 3.66767,0.87768 0.50067,0.33874 0.92764,0.83303 1.27276,1.49279 0.3065,0.66437 0.53929,1.53603 0.68386,2.59547 l 0.75082,0 0,-5.76248 -17.31685,0 0,0.79654 2.99197,0 0,22.00039 -2.99197,0 0,0.78981 z m -9.72283,-23.32347 -1.20366,1.30961 c -1.48039,-1.37835 -3.41752,-2.08134 -5.81244,-2.10543 -2.50229,0.0436 -4.77177,1.19055 -6.79748,3.42992 -2.10544,2.26948 -3.17799,5.18421 -3.22299,8.75941 0,3.48413 0.87165,6.407 2.60858,8.75834 1.68059,2.40768 4.10705,3.64181 7.28043,3.71091 1.75429,-0.0255 3.19748,-0.26929 4.30654,-0.74622 1.11543,-0.47055 1.99346,-1.08496 2.63976,-1.84288 0.33272,-0.4011 0.62008,-0.82134 0.85252,-1.26 0.22039,-0.42661 0.40783,-0.87094 0.55205,-1.34185 0.28736,-0.94677 0.44468,-1.90027 0.46417,-2.86476 l 2.78929,0 0,-0.82169 -9.97512,0 0,0.82169 3.32859,0 c 0.0255,0.49394 0.0322,0.97087 0.0322,1.43504 0,0.46382 -0.0128,0.9039 -0.0322,1.32909 -0.0868,0.86492 -0.28737,1.64339 -0.5889,2.33859 -0.28772,0.67677 -0.77705,1.19692 -1.46693,1.5548 -0.65835,0.40146 -1.58563,0.60236 -2.77689,0.60236 -2.59724,-0.0195 -4.28244,-1.05307 -5.06693,-3.09153 -0.6952,-1.80603 -1.0598,-4.16835 -1.0598,-7.04587 0,-0.16406 0.007,-0.34547 0.007,-0.51591 0,-0.12507 -0.007,-0.26929 -0.007,-0.40783 0,-1.05236 0.0818,-2.47004 0.23953,-4.18748 0.0928,-0.92091 0.24413,-1.83118 0.4507,-2.72658 0.18142,-0.86527 0.42059,-1.61822 0.72071,-2.26346 0.35788,-0.70335 0.93437,-1.34787 1.73693,-1.9311 0.78343,-0.57756 1.71851,-0.87768 2.80878,-0.90319 1.93748,0.0255 3.49228,0.58216 4.64669,1.68023 1.19693,1.08532 1.96122,2.53276 2.3067,4.35756 l 0.78909,0 0,-6.03177 -0.54992,0 z m -33.49134,16.85977 8.37532,0 0,-2.34461 -8.37532,0 0,2.34461 z m -18.62185,6.4637 0,-0.78981 -2.82189,0 0,-22.00039 2.82189,0 0,-0.79654 -8.7222,0 0,0.79654 2.59122,0 0,22.00039 -2.59122,0 0,0.78981 8.7222,0 z m 4.19386,-22.7902 3.07878,0 -9.44256,9.86138 c -0.19382,0.18956 -0.29409,0.35149 -0.29409,0.49571 0,0.039 0.007,0.0691 0.0184,0.1063 l 9.07264,11.537 -2.75209,0 0,0.78981 9.39721,0 0,-0.78981 -2.3191,0 -10.63382,-13.2222 8.07556,-8.77819 2.59653,0 0,-0.79654 -6.79748,0 0,0.79654 z m -21.44374,5.4985 0,-6.00059 -0.51378,0 -1.16504,1.03465 c -0.79122,-0.60165 -1.56153,-1.07185 -2.32122,-1.39748 -0.80256,-0.30827 -1.70468,-0.46417 -2.70744,-0.46417 -2.50228,0.0436 -4.76575,1.20366 -6.7911,3.46677 -2.10579,2.26346 -3.17835,5.17358 -3.22335,8.72256 0,3.48413 0.86705,6.407 2.60398,8.75834 1.6852,2.40768 4.11165,3.64181 7.28504,3.71091 0.0241,0 0.0563,0 0.0804,0 1.90701,0 3.67406,-0.66437 5.29866,-1.98071 l 0.94677,1.44142 0.92091,0 0,-6.40701 -0.83268,0 c -0.43972,1.61114 -1.16681,2.99657 -2.18941,4.15027 -1.04669,1.19764 -2.41866,1.80603 -4.10563,1.83154 -2.59547,-0.0255 -4.28244,-1.01622 -5.05949,-2.97248 -0.41385,-0.94713 -0.68988,-2.0498 -0.82133,-3.32256 -0.15804,-1.25504 -0.23315,-2.64685 -0.23315,-4.18287 0,-0.12544 -0.006,-0.27 -0.006,-0.40784 0,-1.05307 0.0811,-2.45055 0.23918,-4.15027 0.0865,-0.92162 0.23704,-1.8365 0.45071,-2.73367 0.17503,-0.86527 0.42023,-1.61787 0.7207,-2.26346 0.35185,-0.70122 0.93402,-1.34787 1.7302,-1.93713 0.78484,-0.59527 1.71921,-0.9085 2.80913,-0.93401 1.7993,0.0255 3.17941,0.59492 4.13894,1.71071 0.97795,1.13527 1.62957,2.57173 1.94847,4.32708 l 0.79653,0 z m -42.25393,-5.4985 0,22.00039 -2.62808,0 0,0.78981 6.29504,0 0,-0.78981 -2.63338,0 0,-21.27968 0.0627,0 12.82748,22.60878 0.88441,0 0,-23.32949 3.3176,0 0,-0.79654 -7.01752,0 0,0.79654 2.66599,0 0,16.27689 -0.0624,0 -9.69448,-17.07343 -6.64548,0 0,0.79654 2.62808,0 z m -30.45898,22.7902 6.6639,0 0,-0.78981 -2.94059,0 2.43992,-7.79208 6.52641,0 2.35808,7.79208 -2.85945,0 0,0.78981 8.70307,0 0,-0.78981 -2.38996,0 -7.04622,-23.10519 -1.33548,0 -7.41685,23.10519 -2.70283,0 0,0.78981 z m 12.33779,-9.54851 -5.87444,0 3.0033,-9.5935 0.0691,0 2.80204,9.5935 z m -35.63114,9.54851 17.59961,0 0.38161,-6.58843 -0.68952,0 c -0.18142,1.22776 -0.65162,2.47606 -1.40457,3.7428 -0.36921,0.56338 -0.83941,1.03996 -1.40421,1.41696 -0.57012,0.4252 -1.22847,0.63886 -1.96193,0.63886 l -6.44528,0 0,-22.00039 3.4728,0 0,-0.79654 -9.54851,0 0,0.79654 2.76555,0 0,22.00039 -2.76555,0 0,0.78981 z m -17.93232,-11.42965 0,-11.36055 0.95173,0 c 1.1739,0 2.18941,0.0305 3.06142,0.0996 0.85854,0.0946 1.56614,0.32067 2.12492,0.67677 0.54603,0.35787 0.95351,0.89716 1.2228,1.6246 0.27602,0.7402 0.41279,1.71745 0.41279,2.9406 0,0.10594 0.007,0.21366 0.007,0.3196 0,1.78158 -0.41279,3.16665 -1.21039,4.1439 -0.47516,0.49606 -1.13988,0.87768 -1.98744,1.1413 -0.2002,0.0687 -0.43122,0.1187 -0.68953,0.13819 -0.24449,0.0691 -0.5074,0.12508 -0.78413,0.17645 -0.56976,0.0691 -1.21606,0.0996 -1.94351,0.0996 l -1.16539,0 z m -5.97543,-12.15709 0,0.79654 2.66457,0 0,22.00039 -2.92111,0 0,0.78981 9.27248,0 0,-0.78981 -3.04051,0 0,-9.85004 1.6363,0 c 1.80532,0 3.33496,-0.21826 4.59638,-0.6711 1.24724,-0.40146 2.25035,-0.92728 3.00933,-1.5796 0.77705,-0.68953 1.33583,-1.41697 1.66783,-2.18764 0.32563,-0.75898 0.48154,-1.49882 0.48154,-2.21953 0,-0.80256 -0.12473,-1.58598 -0.38232,-2.34531 -0.26292,-0.74623 -0.72036,-1.41024 -1.36524,-1.99312 -1.24264,-1.25539 -3.4239,-1.90027 -6.54768,-1.95059 l -9.07157,0 z m -16.01079,17.12304 8.37532,0 0,-2.34461 -8.37532,0 0,2.34461 z m -21.022085,6.4637 0,-0.78981 -3.066023,0 5.555196,-9.51803 5.542087,9.51803 -2.827913,0 0,0.78981 8.959251,0 0,-0.78981 -2.338582,0 -7.379646,-12.65882 5.617205,-9.34157 2.828622,0 0,-0.79654 -6.777992,0 0,0.79654 2.801693,0 -4.839095,8.30799 -4.821378,-8.30799 2.519646,0 0,-0.79654 -8.815039,0 0,0.79654 2.388543,0 6.489213,11.63657 -6.005906,10.36382 -2.87185,0 0,0.78981 7.041968,0 z m -34.258463,0 6.657873,0 0,-0.78981 -2.934566,0 2.434251,-7.79208 6.532087,0 2.358071,7.79208 -2.865118,0 0,0.78981 8.70874,0 0,-0.78981 -2.389607,0 -7.046574,-23.10519 -1.335118,0 -7.416851,23.10519 -2.703188,0 0,0.78981 z m 12.338503,-9.54851 -5.881535,0 3.009685,-9.5935 0.06909,0 2.802756,9.5935 z m -42.775865,-13.24169 2.527795,0 0,22.00039 -2.527795,0 0,0.78981 6.132401,0 0,-0.78981 -2.570669,0 0,-21.55571 0.06236,0 6.396378,22.34552 0.882638,0 6.646535,-22.34552 0.06874,0 0,21.55571 -2.639763,0 0,0.78981 9.329881,0 0,-0.78981 -3.386692,0 0,-22.00039 3.386692,0 0,-0.79654 -7.009015,0 -5.205473,17.36079 -0.06732,0 -4.959921,-17.36079 -7.066772,0 0,0.79654 z m -0.08008,-13.31681 566.929119,0 0,1.36772 -566.929119,0 0,-1.36772 0,0 z" />
    </g>
  </g>
</svg>
